<svg width="24" height="24" viewBox="0 0 24 24" fill="none" xmlns="http://www.w3.org/2000/svg">
<path d="M11.0859 16.0355L9.6717 14.6213L12.1466 12.1464C12.7323 11.5606 12.7323 10.6109 12.1466 10.0251C11.5608 9.43934 10.611 9.43934 10.0252 10.0251L6.48972 13.5606C5.12289 14.9275 5.12289 17.1436 6.48972 18.5104C7.85656 19.8772 10.0726 19.8772 11.4395 18.5104L18.5105 11.4393C19.8774 10.0725 19.8774 7.85643 18.5105 6.48959L18.157 6.13604C16.9854 4.96446 15.0859 4.96446 13.9143 6.13604L12.5001 4.72182C14.4527 2.7692 17.6186 2.7692 19.5712 4.72182L19.9247 5.07538C22.0726 7.22326 22.0726 10.7057 19.9247 12.8535L12.8537 19.9246C10.7058 22.0725 7.22339 22.0725 5.07551 19.9246C2.92763 17.7767 2.92763 14.2943 5.07551 12.1464L8.61104 8.61091C9.97788 7.24408 12.1939 7.24408 13.5608 8.61091C14.9276 9.97775 14.9276 12.1938 13.5608 13.5606L11.0859 16.0355Z" fill="#344361"/>
</svg>
