<svg width="161" height="22" viewBox="0 0 161 22" fill="none" xmlns="http://www.w3.org/2000/svg">
<path d="M9.27344 5.39844C9.20052 4.71615 8.89323 4.1849 8.35156 3.80469C7.8151 3.42448 7.11719 3.23438 6.25781 3.23438C5.65365 3.23438 5.13542 3.32552 4.70313 3.50781C4.27083 3.6901 3.9401 3.9375 3.71094 4.25C3.48177 4.5625 3.36458 4.91927 3.35938 5.32031C3.35938 5.65365 3.4349 5.94271 3.58594 6.1875C3.74219 6.43229 3.95312 6.64063 4.21875 6.8125C4.48438 6.97917 4.77865 7.11979 5.10156 7.23438C5.42448 7.34896 5.75 7.44531 6.07813 7.52344L7.57812 7.89844C8.18229 8.03906 8.76302 8.22917 9.32031 8.46875C9.88281 8.70833 10.3854 9.01042 10.8281 9.375C11.276 9.73958 11.6302 10.1797 11.8906 10.6953C12.151 11.2109 12.2812 11.8151 12.2812 12.5078C12.2812 13.4453 12.0417 14.2708 11.5625 14.9844C11.0833 15.6927 10.3906 16.2474 9.48438 16.6484C8.58333 17.0443 7.49219 17.2422 6.21094 17.2422C4.96615 17.2422 3.88542 17.0495 2.96875 16.6641C2.05729 16.2786 1.34375 15.7161 0.828125 14.9766C0.317708 14.237 0.0416667 13.3359 0 12.2734H2.85156C2.89323 12.8307 3.0651 13.2943 3.36719 13.6641C3.66927 14.0339 4.0625 14.3099 4.54688 14.4922C5.03646 14.6745 5.58333 14.7656 6.1875 14.7656C6.81771 14.7656 7.36979 14.6719 7.84375 14.4844C8.32292 14.2917 8.69792 14.026 8.96875 13.6875C9.23958 13.3438 9.3776 12.9427 9.38281 12.4844C9.3776 12.0677 9.25521 11.724 9.01562 11.4531C8.77604 11.1771 8.4401 10.9479 8.00781 10.7656C7.58073 10.5781 7.08073 10.4115 6.50781 10.2656L4.6875 9.79688C3.36979 9.45833 2.32813 8.94531 1.5625 8.25781C0.802083 7.5651 0.421875 6.64583 0.421875 5.5C0.421875 4.55729 0.677083 3.73177 1.1875 3.02344C1.70313 2.3151 2.40365 1.76563 3.28906 1.375C4.17448 0.979167 5.17708 0.78125 6.29688 0.78125C7.43229 0.78125 8.42708 0.979167 9.28125 1.375C10.1406 1.76563 10.8151 2.3099 11.3047 3.00781C11.7943 3.70052 12.0469 4.4974 12.0625 5.39844H9.27344Z" fill="white"/>
<path d="M20.2924 5V7.1875H13.394V5H20.2924ZM15.0971 2.125H17.9252V13.3906C17.9252 13.7708 17.9825 14.0625 18.0971 14.2656C18.2169 14.4635 18.3732 14.599 18.5659 14.6719C18.7586 14.7448 18.9721 14.7813 19.2065 14.7813C19.3836 14.7813 19.545 14.7682 19.6909 14.7422C19.8419 14.7161 19.9565 14.6927 20.0346 14.6719L20.5112 16.8828C20.3601 16.9349 20.144 16.9922 19.8627 17.0547C19.5867 17.1172 19.2482 17.1536 18.8471 17.1641C18.1388 17.1849 17.5008 17.0781 16.933 16.8438C16.3653 16.6042 15.9148 16.2344 15.5815 15.7344C15.2534 15.2344 15.0919 14.6094 15.0971 13.8594V2.125Z" fill="white"/>
<path d="M22.2177 17V5H24.9598V7H25.0848C25.3036 6.30729 25.6786 5.77344 26.2098 5.39844C26.7463 5.01823 27.3583 4.82812 28.0458 4.82812C28.202 4.82812 28.3765 4.83594 28.5692 4.85156C28.7671 4.86198 28.9312 4.88021 29.0614 4.90625V7.50781C28.9416 7.46615 28.7515 7.42969 28.4911 7.39844C28.2359 7.36198 27.9885 7.34375 27.7489 7.34375C27.2333 7.34375 26.7697 7.45573 26.3583 7.67969C25.952 7.89844 25.6317 8.20313 25.3973 8.59375C25.163 8.98438 25.0458 9.4349 25.0458 9.94531V17H22.2177Z" fill="white"/>
<path d="M35.3187 17.2344C34.1155 17.2344 33.0765 16.9844 32.2015 16.4844C31.3317 15.9792 30.6624 15.2656 30.1937 14.3438C29.7249 13.4167 29.4905 12.3255 29.4905 11.0703C29.4905 9.83594 29.7249 8.7526 30.1937 7.82031C30.6676 6.88281 31.3291 6.15365 32.178 5.63281C33.027 5.10677 34.0244 4.84375 35.1702 4.84375C35.9098 4.84375 36.6077 4.96354 37.264 5.20312C37.9254 5.4375 38.5088 5.80208 39.014 6.29688C39.5244 6.79167 39.9254 7.42188 40.2171 8.1875C40.5088 8.94792 40.6546 9.85417 40.6546 10.9062V11.7734H30.8187V9.86719H37.9437C37.9385 9.32552 37.8213 8.84375 37.5921 8.42188C37.3629 7.99479 37.0426 7.65885 36.6312 7.41406C36.2249 7.16927 35.751 7.04688 35.2093 7.04688C34.6312 7.04688 34.1234 7.1875 33.6859 7.46875C33.2484 7.74479 32.9072 8.10938 32.6624 8.5625C32.4228 9.01042 32.3004 9.5026 32.2952 10.0391V11.7031C32.2952 12.401 32.4228 13 32.678 13.5C32.9333 13.9948 33.29 14.375 33.7484 14.6406C34.2067 14.901 34.7432 15.0313 35.3577 15.0313C35.7692 15.0313 36.1416 14.974 36.4749 14.8594C36.8083 14.7396 37.0973 14.5651 37.3421 14.3359C37.5869 14.1068 37.7718 13.8229 37.8968 13.4844L40.5374 13.7812C40.3708 14.4792 40.053 15.0885 39.5843 15.6094C39.1208 16.125 38.527 16.526 37.803 16.8125C37.0791 17.0938 36.251 17.2344 35.3187 17.2344Z" fill="white"/>
<path d="M46.0603 17.2422C45.2999 17.2422 44.615 17.1068 44.0056 16.8359C43.4015 16.5599 42.9223 16.1536 42.5681 15.6172C42.2192 15.0807 42.0447 14.4193 42.0447 13.6328C42.0447 12.9557 42.1697 12.3958 42.4197 11.9531C42.6697 11.5104 43.0108 11.1563 43.4431 10.8906C43.8754 10.625 44.3624 10.4245 44.9041 10.2891C45.4509 10.1484 46.016 10.0469 46.5994 9.98438C47.3025 9.91146 47.8728 9.84635 48.3103 9.78906C48.7478 9.72656 49.0655 9.63281 49.2634 9.50781C49.4666 9.3776 49.5681 9.17708 49.5681 8.90625V8.85938C49.5681 8.27083 49.3936 7.8151 49.0447 7.49219C48.6957 7.16927 48.1931 7.00781 47.5369 7.00781C46.8442 7.00781 46.2947 7.15885 45.8884 7.46094C45.4874 7.76302 45.2166 8.11979 45.0759 8.53125L42.4353 8.15625C42.6436 7.42708 42.9874 6.81771 43.4666 6.32812C43.9457 5.83333 44.5317 5.46354 45.2244 5.21875C45.9171 4.96875 46.6827 4.84375 47.5213 4.84375C48.0994 4.84375 48.6749 4.91146 49.2478 5.04688C49.8207 5.18229 50.3442 5.40625 50.8181 5.71875C51.2921 6.02604 51.6723 6.44531 51.9588 6.97656C52.2504 7.50781 52.3963 8.17188 52.3963 8.96875V17H49.6775V15.3516H49.5838C49.4119 15.6849 49.1697 15.9974 48.8572 16.2891C48.5499 16.5755 48.1619 16.8073 47.6931 16.9844C47.2296 17.1563 46.6853 17.2422 46.0603 17.2422ZM46.7947 15.1641C47.3624 15.1641 47.8546 15.0521 48.2713 14.8281C48.6879 14.599 49.0082 14.2969 49.2322 13.9219C49.4614 13.5469 49.5759 13.138 49.5759 12.6953V11.2812C49.4874 11.3542 49.3364 11.4219 49.1228 11.4844C48.9145 11.5469 48.6801 11.6016 48.4197 11.6484C48.1593 11.6953 47.9015 11.737 47.6463 11.7734C47.391 11.8099 47.1697 11.8411 46.9822 11.8672C46.5603 11.9245 46.1827 12.0182 45.8494 12.1484C45.516 12.2786 45.253 12.4609 45.0603 12.6953C44.8676 12.9245 44.7713 13.2214 44.7713 13.5859C44.7713 14.1068 44.9614 14.5 45.3416 14.7656C45.7218 15.0313 46.2061 15.1641 46.7947 15.1641Z" fill="white"/>
<path d="M54.8 17V5H57.5031V7.03906H57.6437C57.8937 6.35156 58.3078 5.8151 58.8859 5.42969C59.4641 5.03906 60.1542 4.84375 60.9562 4.84375C61.7687 4.84375 62.4536 5.04167 63.0109 5.4375C63.5734 5.82813 63.9693 6.36198 64.1984 7.03906H64.3234C64.5891 6.3724 65.037 5.84115 65.6672 5.44531C66.3026 5.04427 67.0552 4.84375 67.925 4.84375C69.0292 4.84375 69.9302 5.19271 70.6281 5.89062C71.326 6.58854 71.675 7.60677 71.675 8.94531V17H68.8391V9.38281C68.8391 8.63802 68.6411 8.09375 68.2453 7.75C67.8495 7.40104 67.3651 7.22656 66.7922 7.22656C66.1099 7.22656 65.576 7.4401 65.1906 7.86719C64.8104 8.28906 64.6203 8.83854 64.6203 9.51562V17H61.8469V9.26563C61.8469 8.64583 61.6594 8.15104 61.2844 7.78125C60.9146 7.41146 60.4302 7.22656 59.8312 7.22656C59.425 7.22656 59.0552 7.33073 58.7219 7.53906C58.3885 7.74219 58.1229 8.03125 57.925 8.40625C57.7271 8.77604 57.6281 9.20833 57.6281 9.70312V17H54.8Z" fill="white"/>
<path d="M74.5885 17V1H79.9948C81.25 1 82.276 1.22656 83.0729 1.67969C83.875 2.1276 84.4687 2.73438 84.8541 3.5C85.2396 4.26563 85.4323 5.11979 85.4323 6.0625C85.4323 7.00521 85.2396 7.86198 84.8541 8.63281C84.4739 9.40365 83.8854 10.0182 83.0885 10.4766C82.2916 10.9297 81.2708 11.1563 80.026 11.1563H76.151V9.4375H79.9635C80.8229 9.4375 81.513 9.28906 82.0338 8.99219C82.5547 8.69531 82.9323 8.29427 83.1666 7.78906C83.4062 7.27865 83.526 6.70313 83.526 6.0625C83.526 5.42188 83.4062 4.84896 83.1666 4.34375C82.9323 3.83854 82.5521 3.44271 82.026 3.15625C81.5 2.86458 80.8021 2.71875 79.9323 2.71875H76.526V17H74.5885Z" fill="white"/>
<path d="M91.3946 17.2812C90.6342 17.2812 89.9441 17.138 89.3243 16.8516C88.7045 16.5599 88.2123 16.1406 87.8477 15.5938C87.4831 15.0417 87.3009 14.375 87.3009 13.5938C87.3009 12.9063 87.4363 12.349 87.7071 11.9219C87.9779 11.4896 88.3399 11.151 88.793 10.9062C89.2462 10.6615 89.7462 10.4792 90.293 10.3594C90.8451 10.2344 91.3998 10.1354 91.9571 10.0625C92.6863 9.96875 93.2774 9.89844 93.7305 9.85156C94.1889 9.79948 94.5222 9.71354 94.7305 9.59375C94.9441 9.47396 95.0509 9.26563 95.0509 8.96875V8.90625C95.0509 8.13542 94.8399 7.53646 94.418 7.10938C94.0014 6.68229 93.3686 6.46875 92.5196 6.46875C91.6394 6.46875 90.9493 6.66146 90.4493 7.04688C89.9493 7.43229 89.5977 7.84375 89.3946 8.28125L87.6446 7.65625C87.9571 6.92708 88.3738 6.35938 88.8946 5.95313C89.4206 5.54167 89.9936 5.25521 90.6134 5.09375C91.2384 4.92708 91.8529 4.84375 92.4571 4.84375C92.8425 4.84375 93.2852 4.89063 93.7852 4.98438C94.2904 5.07292 94.7774 5.25781 95.2462 5.53906C95.7201 5.82031 96.1134 6.24479 96.4259 6.8125C96.7384 7.38021 96.8946 8.14063 96.8946 9.09375V17H95.0509V15.375H94.9571C94.8321 15.6354 94.6238 15.9141 94.3321 16.2109C94.0404 16.5078 93.6524 16.7604 93.168 16.9688C92.6837 17.1771 92.0925 17.2812 91.3946 17.2812ZM91.6759 15.625C92.405 15.625 93.0196 15.4818 93.5196 15.1953C94.0248 14.9089 94.405 14.5391 94.6602 14.0859C94.9206 13.6328 95.0509 13.1562 95.0509 12.6562V10.9688C94.9727 11.0625 94.8009 11.1484 94.5352 11.2266C94.2748 11.2995 93.9727 11.3646 93.629 11.4219C93.2904 11.474 92.9597 11.5208 92.6368 11.5625C92.3191 11.599 92.0613 11.6302 91.8634 11.6562C91.3842 11.7187 90.9363 11.8203 90.5196 11.9609C90.1081 12.0964 89.7748 12.3021 89.5196 12.5781C89.2696 12.849 89.1446 13.2187 89.1446 13.6875C89.1446 14.3281 89.3816 14.8125 89.8555 15.1406C90.3347 15.4635 90.9415 15.625 91.6759 15.625Z" fill="white"/>
<path d="M100.578 21.5C100.265 21.5 99.9865 21.474 99.7417 21.4219C99.4969 21.375 99.3277 21.3281 99.2339 21.2812L99.7027 19.6562C100.151 19.7708 100.546 19.8125 100.89 19.7812C101.234 19.75 101.539 19.5964 101.804 19.3203C102.075 19.0495 102.322 18.6094 102.546 18L102.89 17.0625L98.4527 5H100.453L103.765 14.5625H103.89L107.203 5H109.203L104.109 18.75C103.88 19.3698 103.596 19.8828 103.257 20.2891C102.919 20.7005 102.526 21.0052 102.078 21.2031C101.635 21.401 101.135 21.5 100.578 21.5Z" fill="white"/>
<path d="M111.196 17V5H112.978V6.875H113.134C113.384 6.23438 113.787 5.73698 114.345 5.38281C114.902 5.02344 115.571 4.84375 116.353 4.84375C117.144 4.84375 117.803 5.02344 118.329 5.38281C118.86 5.73698 119.274 6.23438 119.571 6.875H119.696C120.004 6.25521 120.464 5.76302 121.079 5.39844C121.694 5.02865 122.431 4.84375 123.29 4.84375C124.363 4.84375 125.241 5.17969 125.923 5.85156C126.605 6.51823 126.946 7.55729 126.946 8.96875V17H125.103V8.96875C125.103 8.08333 124.86 7.45052 124.376 7.07031C123.892 6.6901 123.321 6.5 122.665 6.5C121.821 6.5 121.168 6.75521 120.704 7.26563C120.241 7.77083 120.009 8.41146 120.009 9.1875V17H118.134V8.78125C118.134 8.09896 117.912 7.54948 117.47 7.13281C117.027 6.71094 116.457 6.5 115.759 6.5C115.28 6.5 114.832 6.6276 114.415 6.88281C114.004 7.13802 113.67 7.49219 113.415 7.94531C113.165 8.39323 113.04 8.91146 113.04 9.5V17H111.196Z" fill="white"/>
<path d="M134.909 17.25C133.752 17.25 132.755 16.9948 131.916 16.4844C131.083 15.9688 130.44 15.25 129.987 14.3281C129.539 13.401 129.315 12.3229 129.315 11.0938C129.315 9.86458 129.539 8.78125 129.987 7.84375C130.44 6.90104 131.07 6.16667 131.877 5.64062C132.69 5.10938 133.638 4.84375 134.721 4.84375C135.346 4.84375 135.963 4.94792 136.573 5.15625C137.182 5.36458 137.737 5.70313 138.237 6.17188C138.737 6.63542 139.135 7.25 139.432 8.01563C139.729 8.78125 139.877 9.72396 139.877 10.8438V11.625H130.627V10.0312H138.002C138.002 9.35417 137.867 8.75 137.596 8.21875C137.33 7.6875 136.95 7.26823 136.455 6.96094C135.966 6.65365 135.388 6.5 134.721 6.5C133.987 6.5 133.351 6.68229 132.815 7.04688C132.284 7.40625 131.875 7.875 131.588 8.45312C131.302 9.03125 131.159 9.65104 131.159 10.3125V11.375C131.159 12.2813 131.315 13.0495 131.627 13.6797C131.945 14.3047 132.385 14.7813 132.948 15.1094C133.51 15.4323 134.164 15.5938 134.909 15.5938C135.393 15.5938 135.83 15.526 136.221 15.3906C136.617 15.25 136.958 15.0417 137.245 14.7656C137.531 14.4844 137.752 14.1354 137.909 13.7188L139.69 14.2188C139.502 14.8229 139.187 15.3542 138.745 15.8125C138.302 16.2656 137.755 16.6198 137.104 16.875C136.453 17.125 135.721 17.25 134.909 17.25Z" fill="white"/>
<path d="M144.086 9.78125V17H142.242V5H144.023V6.875H144.18C144.461 6.26563 144.888 5.77604 145.461 5.40625C146.034 5.03125 146.773 4.84375 147.68 4.84375C148.492 4.84375 149.203 5.01042 149.812 5.34375C150.422 5.67188 150.896 6.17188 151.234 6.84375C151.573 7.51042 151.742 8.35417 151.742 9.375V17H149.898V9.5C149.898 8.55729 149.653 7.82292 149.164 7.29688C148.674 6.76562 148.002 6.5 147.148 6.5C146.56 6.5 146.034 6.6276 145.57 6.88281C145.112 7.13802 144.75 7.51042 144.484 8C144.219 8.48958 144.086 9.08333 144.086 9.78125Z" fill="white"/>
<path d="M159.89 5V6.5625H153.671V5H159.89ZM155.484 2.125H157.327V13.5625C157.327 14.0833 157.403 14.474 157.554 14.7344C157.71 14.9896 157.908 15.1615 158.148 15.25C158.393 15.3333 158.65 15.375 158.921 15.375C159.124 15.375 159.291 15.3646 159.421 15.3438C159.551 15.3177 159.656 15.2969 159.734 15.2813L160.109 16.9375C159.984 16.9844 159.809 17.0312 159.585 17.0781C159.361 17.1302 159.077 17.1562 158.734 17.1562C158.213 17.1562 157.702 17.0443 157.202 16.8203C156.708 16.5964 156.296 16.2552 155.968 15.7969C155.645 15.3385 155.484 14.7604 155.484 14.0625V2.125Z" fill="white"/>
</svg>
