<svg width="56" height="56" viewBox="0 0 56 56" fill="none" xmlns="http://www.w3.org/2000/svg">
<g clip-path="url(#clip0_2_161)">
<path d="M28 56C43.464 56 56 43.464 56 28C56 12.536 43.464 0 28 0C12.536 0 0 12.536 0 28C0 43.464 12.536 56 28 56Z" fill="#48536D" fill-opacity="0.17"/>
<path opacity="0.3" fill-rule="evenodd" clip-rule="evenodd" d="M20.252 30C21.14 33.4505 24.2722 36 27.9999 36C32.4182 36 35.9999 32.4183 35.9999 28C35.9999 23.9204 32.9462 20.554 28.9999 20.0619V30H20.252Z" fill="#5C6C85"/>
<path fill-rule="evenodd" clip-rule="evenodd" d="M27.0001 26V19C22.9205 19 19.5541 22.0537 19.062 26H27.0001Z" fill="#5C6C85"/>
</g>
<defs>
<clipPath id="clip0_2_161">
<rect width="56" height="56" fill="white"/>
</clipPath>
</defs>
</svg>
