<svg width="56" height="56" viewBox="0 0 56 56" fill="none" xmlns="http://www.w3.org/2000/svg">
<g clip-path="url(#clip0_2_165)">
<path d="M28 56C43.464 56 56 43.464 56 28C56 12.536 43.464 0 28 0C12.536 0 0 12.536 0 28C0 43.464 12.536 56 28 56Z" fill="#48536D" fill-opacity="0.17"/>
<path fill-rule="evenodd" clip-rule="evenodd" d="M22.6854 23.2718C23.0875 23.6503 23.1067 24.2832 22.7282 24.6854L19.3732 28.25L22.7282 31.8146C23.1067 32.2168 23.0875 32.8497 22.6854 33.2282C22.2832 33.6067 21.6503 33.5875 21.2718 33.1854L17.2718 28.9354C16.9094 28.5503 16.9094 27.9497 17.2718 27.5646L21.2718 23.3146C21.6503 22.9125 22.2832 22.8933 22.6854 23.2718ZM33.3146 23.2718C32.9125 23.6503 32.8933 24.2832 33.2718 24.6854L36.6268 28.25L33.2718 31.8146C32.8933 32.2168 32.9125 32.8497 33.3146 33.2282C33.7168 33.6067 34.3497 33.5875 34.7282 33.1854L38.7282 28.9354C39.0906 28.5503 39.0906 27.9497 38.7282 27.5646L34.7282 23.3146C34.3497 22.9125 33.7168 22.8933 33.3146 23.2718Z" fill="#5C6C85"/>
<path opacity="0.3" d="M30.7778 21.4974C30.9207 20.9639 30.6041 20.4156 30.0707 20.2726C29.5372 20.1297 28.9889 20.4463 28.8459 20.9797L25.2225 34.5027C25.0795 35.0361 25.3961 35.5845 25.9296 35.7274C26.463 35.8704 27.0114 35.5538 27.1543 35.0203L30.7778 21.4974Z" fill="#5C6C85"/>
</g>
<defs>
<clipPath id="clip0_2_165">
<rect width="56" height="56" fill="white"/>
</clipPath>
</defs>
</svg>
