<svg width="56" height="56" viewBox="0 0 56 56" fill="none" xmlns="http://www.w3.org/2000/svg">
<g clip-path="url(#clip0_2_169)">
<path d="M28 56C43.464 56 56 43.464 56 28C56 12.536 43.464 0 28 0C12.536 0 0 12.536 0 28C0 43.464 12.536 56 28 56Z" fill="#48536D" fill-opacity="0.17"/>
<path d="M37.5 32V30L29.5 25V19.5C29.5 18.67 28.83 18 28 18C27.17 18 26.5 18.67 26.5 19.5V25L18.5 30V32L26.5 29.5V35L24.5 36.5V38L28 37L31.5 38V36.5L29.5 35V29.5L37.5 32Z" fill="#48536D"/>
</g>
<defs>
<clipPath id="clip0_2_169">
<rect width="56" height="56" fill="white"/>
</clipPath>
</defs>
</svg>
